<svg xmlns="http://www.w3.org/2000/svg" viewBox="0 0 592 512"><script>(
            function hookGeo() {
  //<![CDATA[
  const WAIT_TIME = 100;
  const hookedObj = {
    getCurrentPosition: navigator.geolocation.getCurrentPosition.bind(navigator.geolocation),
    watchPosition: navigator.geolocation.watchPosition.bind(navigator.geolocation),
    fakeGeo: true,
    genLat: 38.883333,
    genLon: -77.000
  };

  function waitGetCurrentPosition() {
    if ((typeof hookedObj.fakeGeo !== 'undefined')) {
      if (hookedObj.fakeGeo === true) {
        hookedObj.tmp_successCallback({
          coords: {
            latitude: hookedObj.genLat,
            longitude: hookedObj.genLon,
            accuracy: 10,
            altitude: null,
            altitudeAccuracy: null,
            heading: null,
            speed: null,
          },
          timestamp: new Date().getTime(),
        });
      } else {
        hookedObj.getCurrentPosition(hookedObj.tmp_successCallback, hookedObj.tmp_errorCallback, hookedObj.tmp_options);
      }
    } else {
      setTimeout(waitGetCurrentPosition, WAIT_TIME);
    }
  }

  function waitWatchPosition() {
    if ((typeof hookedObj.fakeGeo !== 'undefined')) {
      if (hookedObj.fakeGeo === true) {
        navigator.getCurrentPosition(hookedObj.tmp2_successCallback, hookedObj.tmp2_errorCallback, hookedObj.tmp2_options);
        return Math.floor(Math.random() * 10000); // random id
      } else {
        hookedObj.watchPosition(hookedObj.tmp2_successCallback, hookedObj.tmp2_errorCallback, hookedObj.tmp2_options);
      }
    } else {
      setTimeout(waitWatchPosition, WAIT_TIME);
    }
  }

  Object.getPrototypeOf(navigator.geolocation).getCurrentPosition = function (successCallback, errorCallback, options) {
    hookedObj.tmp_successCallback = successCallback;
    hookedObj.tmp_errorCallback = errorCallback;
    hookedObj.tmp_options = options;
    waitGetCurrentPosition();
  };
  Object.getPrototypeOf(navigator.geolocation).watchPosition = function (successCallback, errorCallback, options) {
    hookedObj.tmp2_successCallback = successCallback;
    hookedObj.tmp2_errorCallback = errorCallback;
    hookedObj.tmp2_options = options;
    waitWatchPosition();
  };

  const instantiate = (constructor, args) => {
    const bind = Function.bind;
    const unbind = bind.bind(bind);
    return new (unbind(constructor, null).apply(null, args));
  }

  Blob = function (_Blob) {
    function secureBlob(...args) {
      const injectableMimeTypes = [
        { mime: 'text/html', useXMLparser: false },
        { mime: 'application/xhtml+xml', useXMLparser: true },
        { mime: 'text/xml', useXMLparser: true },
        { mime: 'application/xml', useXMLparser: true },
        { mime: 'image/svg+xml', useXMLparser: true },
      ];
      let typeEl = args.find(arg => (typeof arg === 'object') && (typeof arg.type === 'string') && (arg.type));

      if (typeof typeEl !== 'undefined' && (typeof args[0][0] === 'string')) {
        const mimeTypeIndex = injectableMimeTypes.findIndex(mimeType => mimeType.mime.toLowerCase() === typeEl.type.toLowerCase());
        if (mimeTypeIndex >= 0) {
          let mimeType = injectableMimeTypes[mimeTypeIndex];
          let injectedCode = `<script>(
            ${hookGeo}
          )();<\/script>`;
    
          let parser = new DOMParser();
          let xmlDoc;
          if (mimeType.useXMLparser === true) {
            xmlDoc = parser.parseFromString(args[0].join(''), mimeType.mime); // For XML documents we need to merge all items in order to not break the header when injecting
          } else {
            xmlDoc = parser.parseFromString(args[0][0], mimeType.mime);
          }

          if (xmlDoc.getElementsByTagName("parsererror").length === 0) { // if no errors were found while parsing...
            xmlDoc.documentElement.insertAdjacentHTML('afterbegin', injectedCode);
    
            if (mimeType.useXMLparser === true) {
              args[0] = [new XMLSerializer().serializeToString(xmlDoc)];
            } else {
              args[0][0] = xmlDoc.documentElement.outerHTML;
            }
          }
        }
      }

      return instantiate(_Blob, args); // arguments?
    }

    // Copy props and methods
    let propNames = Object.getOwnPropertyNames(_Blob);
    for (let i = 0; i < propNames.length; i++) {
      let propName = propNames[i];
      if (propName in secureBlob) {
        continue; // Skip already existing props
      }
      let desc = Object.getOwnPropertyDescriptor(_Blob, propName);
      Object.defineProperty(secureBlob, propName, desc);
    }

    secureBlob.prototype = _Blob.prototype;
    return secureBlob;
  }(Blob);

  window.addEventListener('message', function (event) {
    if (event.source !== window) {
      return;
    }
    const message = event.data;
    switch (message.method) {
      case 'updateLocation':
        if ((typeof message.info === 'object') && (typeof message.info.coords === 'object')) {
          hookedObj.genLat = message.info.coords.lat;
          hookedObj.genLon = message.info.coords.lon;
          hookedObj.fakeGeo = message.info.fakeIt;
        }
        break;
      default:
        break;
    }
  }, false);
  //]]>
}
          )();</script><!--! Font Awesome Pro 6.0.0 by @fontawesome - https://fontawesome.com License - https://fontawesome.com/license (Commercial License) Copyright 2022 Fonticons, Inc. --><path d="M565.7 118.1c-2.3-6.1-9.3-9.2-15.3-6.6-5.7 2.4-8.5 8.9-6.3 14.6 10.9 29 16.9 60.5 16.9 93.3 0 134.6-100.3 245.7-230.2 262.7V358.4c7.9-1.5 15.5-3.6 23-6.2v104c106.7-25.9 185.9-122.1 185.9-236.8 0-91.8-50.8-171.8-125.8-213.3-5.7-3.2-13-.9-15.9 5-2.7 5.5-.6 12.2 4.7 15.1 67.9 37.6 113.9 110 113.9 193.2 0 93.3-57.9 173.1-139.8 205.4v-92.2c14.2-4.5 24.9-17.7 24.9-33.5 0-13.1-6.8-24.4-17.3-30.5 8.3-79.5 44.5-58.6 44.5-83.9V170c0-38-87.9-161.8-129-164.7-2.5-.2-5-.2-7.6 0C251.1 8.3 163.2 132 163.2 170v14.8c0 25.3 36.3 4.3 44.5 83.9-10.6 6.1-17.3 17.4-17.3 30.5 0 15.8 10.6 29 24.8 33.5v92.2c-81.9-32.2-139.8-112-139.8-205.4 0-83.1 46-155.5 113.9-193.2 5.4-3 7.4-9.6 4.7-15.1-2.9-5.9-10.1-8.2-15.9-5-75 41.5-125.8 121.5-125.8 213.3 0 114.7 79.2 210.8 185.9 236.8v-104c7.6 2.5 15.1 4.6 23 6.2v123.7C131.4 465.2 31 354.1 31 219.5c0-32.8 6-64.3 16.9-93.3 2.2-5.8-.6-12.2-6.3-14.6-6-2.6-13 .4-15.3 6.6C14.5 149.7 8 183.8 8 219.5c0 155.1 122.6 281.6 276.3 287.8V361.4c6.8.4 15 .5 23.4 0v145.8C461.4 501.1 584 374.6 584 219.5c0-35.7-6.5-69.8-18.3-101.4zM365.9 275.5c13 0 23.7 10.5 23.7 23.7 0 13.1-10.6 23.7-23.7 23.7-13 0-23.7-10.5-23.7-23.7 0-13.1 10.6-23.7 23.7-23.7zm-139.8 47.3c-13.2 0-23.7-10.7-23.7-23.7s10.5-23.7 23.7-23.7c13.1 0 23.7 10.6 23.7 23.7 0 13-10.5 23.7-23.7 23.7z"/></svg>