<svg id="ICONS_HERE_" data-name="ICONS HERE!" xmlns="http://www.w3.org/2000/svg" viewBox="0 0 20 16"><path d="M10.17.63A3.49,3.49,0,0,1,12.4,1.69,5.57,5.57,0,0,1,14,5.09c0,.29,0,.37-.34.29s-.68-.24-.72-.74A4,4,0,0,0,12.26,3a2.86,2.86,0,0,0-4.75-.32A5.87,5.87,0,0,0,6.37,7.21a7.06,7.06,0,0,0,.82,2.6.51.51,0,0,0,.47.33,1.1,1.1,0,0,1,1,1.27,1.12,1.12,0,0,1-1.33.91,1.08,1.08,0,0,1-.8-1.43.72.72,0,0,0-.12-.58A7.86,7.86,0,0,1,5.84,3.7,4.56,4.56,0,0,1,10.17.63Z"/><path d="M4.54,7.55a1.11,1.11,0,0,0,.06.26A.94.94,0,0,1,4.3,9a3.12,3.12,0,0,0-.84,3.89,2.86,2.86,0,0,0,3,1.47A7,7,0,0,0,11.91,11a.51.51,0,0,0,0-.65,1.06,1.06,0,0,1,.48-1.49,1.1,1.1,0,0,1,1.49.51,1.06,1.06,0,0,1-.55,1.47,1.08,1.08,0,0,0-.54.51A7.33,7.33,0,0,1,6.08,15.3c-3.81-.07-4.46-3.47-3.39-5.64A5.49,5.49,0,0,1,4.54,7.55Z"/><path d="M11.05,14.77a2.31,2.31,0,0,0,.25-.22,1.08,1.08,0,0,1,1.33-.28,3.38,3.38,0,0,0,2.11.08,2.78,2.78,0,0,0,2-3.57,4.9,4.9,0,0,0-1.5-2.25,7.52,7.52,0,0,0-4.83-1.82A.63.63,0,0,0,9.81,7,1.1,1.1,0,1,1,8.12,5.56a1.09,1.09,0,0,1,1.64,0,.72.72,0,0,0,.61.21A7.92,7.92,0,0,1,16.5,8.5a4.74,4.74,0,0,1,1.24,3.79,3.06,3.06,0,0,1-1.43,2.23A5.11,5.11,0,0,1,11.05,14.77Z"/></svg>